<?xml version="1.0" standalone="no"?>
<!DOCTYPE svg PUBLIC "-//W3C//DTD SVG 20010904//EN"
 "http://www.w3.org/TR/2001/REC-SVG-20010904/DTD/svg10.dtd">
<svg version="1.0" xmlns="http://www.w3.org/2000/svg"
 width="512.000000pt" height="512.000000pt" viewBox="0 0 512.000000 512.000000"
 preserveAspectRatio="xMidYMid meet">

<g transform="translate(0.000000,512.000000) scale(0.100000,-0.100000)"
fill="#000000" stroke="none">
<path d="M1579 4129 c-26 -10 -49 -45 -49 -75 0 -8 11 -26 25 -39 l24 -25 716
0 716 0 24 25 c14 13 25 31 25 39 0 31 -24 65 -53 76 -39 13 -1391 13 -1428
-1z"/>
<path d="M3274 4131 c-27 -12 -54 -49 -54 -74 0 -10 11 -29 25 -42 23 -24 30
-25 150 -25 112 0 127 2 145 20 27 27 26 81 -1 106 -18 16 -39 19 -133 21 -61
2 -121 -2 -132 -6z"/>
<path d="M1555 3725 c-28 -27 -30 -42 -14 -78 18 -39 50 -47 192 -47 144 0
169 8 188 57 10 28 -10 77 -36 87 -9 3 -82 6 -161 6 -141 0 -146 -1 -169 -25z"/>
<path d="M2115 3725 c-30 -29 -32 -64 -6 -96 l19 -24 690 -3 c686 -2 689 -2
715 19 35 27 37 79 5 109 -21 20 -31 20 -710 20 l-689 0 -24 -25z"/>
<path d="M1841 3444 c-13 -17 -21 -42 -21 -68 -1 -40 -2 -41 -60 -68 -71 -32
-114 -86 -130 -164 -19 -92 3 -175 61 -232 40 -40 67 -55 177 -98 138 -54 182
-102 182 -195 0 -92 -61 -148 -160 -149 -70 0 -111 16 -169 65 -29 25 -57 45
-62 45 -19 0 -59 -49 -59 -72 0 -56 81 -126 170 -149 48 -12 50 -14 50 -47 0
-35 15 -72 34 -84 6 -4 25 -8 43 -8 41 0 63 30 63 85 0 40 1 41 43 52 57 16
125 76 153 137 19 41 24 68 24 136 0 148 -58 229 -209 290 -194 79 -211 92
-211 171 0 116 131 161 282 97 58 -25 88 -21 107 14 33 59 -28 118 -139 133
l-50 7 0 44 c0 79 -74 115 -119 58z"/>
<path d="M2995 3046 c-42 -18 -82 -68 -96 -118 -6 -25 -9 -106 -7 -207 4 -191
14 -225 81 -269 39 -26 46 -27 201 -30 156 -2 160 -2 128 14 -43 22 -79 66
-92 112 -5 20 -10 110 -10 200 0 201 13 243 95 293 l30 19 -150 0 c-102 -1
-160 -5 -180 -14z"/>
<path d="M2915 2095 c-24 -24 -25 -28 -25 -180 0 -157 5 -186 39 -212 11 -9
66 -12 178 -13 222 0 211 -11 215 212 3 164 3 167 -21 192 -24 26 -25 26 -193
26 -166 0 -169 0 -193 -25z"/>
<path d="M3615 2095 c-24 -24 -25 -28 -25 -180 0 -162 9 -205 45 -219 9 -3 88
-6 176 -6 156 0 160 1 184 25 23 22 25 32 27 132 5 203 3 221 -22 248 -23 25
-26 25 -192 25 -166 0 -169 0 -193 -25z"/>
<path d="M2919 1400 l-30 -30 3 -165 c4 -218 -4 -209 190 -214 150 -3 211 7
227 37 5 10 11 94 13 186 l3 168 -28 24 c-27 23 -33 24 -188 24 l-161 0 -29
-30z"/>
<path d="M3621 1404 l-31 -26 0 -163 c0 -159 1 -165 24 -192 l24 -28 165 0
c222 0 212 -9 220 197 6 170 -2 211 -48 228 -15 6 -93 10 -175 10 -145 0 -149
-1 -179 -26z"/>
<path d="M495 1284 c-113 -27 -202 -80 -296 -175 -100 -100 -141 -172 -170
-300 -24 -109 -24 -197 1 -295 31 -123 71 -193 158 -281 138 -139 262 -193
457 -200 l120 -4 -70 24 c-108 37 -192 92 -275 181 -45 48 -132 211 -148 278
-20 80 -15 259 9 331 73 219 214 368 408 434 l66 22 -100 0 c-55 0 -127 -7
-160 -15z"/>
<path d="M780 1126 c-147 -41 -277 -160 -325 -296 -110 -311 124 -641 453
-640 l47 0 -59 25 c-127 52 -212 131 -266 247 -122 260 3 561 271 658 l54 19
-65 0 c-36 -1 -85 -6 -110 -13z"/>
<path d="M866 1069 c-14 -11 -26 -31 -26 -43 0 -15 -12 -31 -37 -47 -59 -39
-77 -71 -81 -148 -6 -106 30 -155 148 -201 86 -33 100 -46 100 -85 0 -62 -75
-76 -133 -25 -39 34 -75 38 -106 13 -54 -46 -27 -125 59 -168 34 -17 50 -32
50 -44 0 -31 49 -64 85 -57 34 7 65 39 65 66 0 10 9 21 19 25 68 21 115 101
115 195 0 102 -40 158 -149 205 -81 35 -87 39 -99 57 -26 42 50 63 120 33 64
-26 114 5 114 71 0 37 -23 61 -77 79 -25 9 -39 20 -41 34 -4 26 -48 61 -77 61
-12 0 -34 -9 -49 -21z"/>
<path d="M1537 783 c16 -96 5 -244 -24 -319 -4 -12 36 -14 280 -14 178 0 296
4 314 11 64 24 123 109 123 179 0 43 -29 107 -61 137 -54 49 -79 53 -369 53
l-271 0 8 -47z"/>
<path d="M2919 740 l-30 -30 3 -165 c4 -219 -6 -209 202 -213 126 -3 160 0
185 12 37 20 38 25 46 203 7 157 -2 195 -51 213 -14 6 -93 10 -175 10 l-151 0
-29 -30z"/>
<path d="M3619 741 l-29 -29 0 -161 c0 -155 1 -161 24 -188 l24 -28 155 -3
c170 -4 212 6 221 51 11 54 14 299 4 327 -17 51 -49 60 -218 60 l-152 0 -29
-29z"/>
<path d="M1465 362 c-56 -110 -162 -214 -275 -270 l-85 -42 483 0 c520 0 523
0 581 53 106 98 62 288 -77 327 -21 6 -154 10 -312 10 l-275 0 -40 -78z"/>
</g>
</svg>
