<svg xmlns="http://www.w3.org/2000/svg" version="1.1" xmlns:xlink="http://www.w3.org/1999/xlink" xmlns:svgjs="http://svgjs.com/svgjs" width="1920" height="1080" preserveAspectRatio="none" viewBox="0 0 1920 1080"><g mask="url(&quot;#SvgjsMask1029&quot;)" fill="none"><rect width="1920" height="1080" x="0" y="0" fill="url(#SvgjsLinearGradient1030)"></rect><path d="M534.49 0C596.07 68.3 511.12 138.06 513.44 270C513.88 294.95 518.88 313.78 540 313.78C594.47 313.78 663.82 318.5 664.62 270C666.41 161.61 506.87 71.17 545.19 0C579.56 -63.83 677.6 0 810 0C945 0 1055.83 -62.16 1080 0C1108.33 72.84 925.23 130.87 915 270C905.38 400.87 1001.66 398.65 1040.29 540C1075.45 668.65 1045.17 676.8 1062.58 810C1065.02 828.67 1062.6 838.3 1080 843.75C1206.31 883.3 1231.3 912.1 1350 900C1396.79 895.23 1387.8 858.91 1410.97 810C1473.07 678.91 1539.55 637.35 1520.53 540C1509.06 481.31 1420.5 545.33 1350 497.92C1219.77 410.33 1192.42 405.24 1119.08 270C1057.42 156.28 1021.97 67.85 1080 0C1137.43 -67.15 1215 0 1350 0C1485 0 1485 0 1620 0C1755 0 1755 0 1890 0C2025 0 2092.5 -67.5 2160 0C2227.5 67.5 2160 135 2160 270C2160 405 2160 405 2160 540C2160 651.05 2214.39 755.3 2160 762.1C2079.39 772.18 1980.74 559.91 1890 573.75C1823.76 583.86 1846.05 698.18 1846.05 810C1846.05 840.23 1859.56 853.68 1890 857.85C2016.53 875.2 2086.65 792.69 2160 853.04C2221.65 903.76 2221.65 1028.17 2160 1080C2086.65 1141.65 2025 1080 1890 1080C1755 1080 1755 1080 1620 1080C1485 1080 1485 1080 1350 1080C1215 1080 1215 1080 1080 1080C945 1080 945 1080 810 1080C675 1080 675 1080 540 1080C405 1080 405 1080 270 1080C135 1080 67.5 1147.5 0 1080C-67.5 1012.5 0 945 0 810C0 675 0 675 0 540C0 405 0 405 0 270C0 135 -67.5 67.5 0 0C67.5 -67.5 135 0 270 0C402.25 0 474.35 -66.7 534.49 0" stroke="rgba(255, 136, 48, 1)" stroke-width="2"></path><path d="M270 787.5C250.2 793.22 235.16 800.42 235.16 810C235.16 818.68 251.57 820.72 270 824.03C403.99 848.09 409.97 869.77 540 864.73C591 862.75 632.05 842.6 632.05 810C632.05 771.22 596.9 725.5 540 721.96C415.88 714.25 402.62 749.2 270 787.5" stroke="rgba(255, 136, 48, 1)" stroke-width="2"></path><path d="M0 91.32C32.2 26.92 61.16 24.97 135 0C196.16 -20.69 202.5 0 270 0C333.37 0 375.52 -43.12 396.73 0C441.92 91.88 366.6 144.67 402.79 270C438.24 392.78 439.24 441.56 540 496.22C642.84 552.01 685.97 472.92 810 490.91C836.85 494.81 838.66 511.6 841.76 540C856.08 671.15 809.58 683.83 844.84 810C885.03 953.83 1003.58 995.27 992.65 1080C986.16 1130.27 901.33 1080 810 1080C675 1080 675 1080 540 1080C405 1080 405 1080 270 1080C154.28 1080 107.87 1135.44 38.57 1080C-27.13 1027.44 15.48 972.34 0 864C-3.81 837.34 0 837 0 810C0 675 0 675 0 540C0 405 0 405 0 270C0 180.66 -35.3 161.92 0 91.32" stroke="rgba(255, 136, 48, 1)" stroke-width="2"></path><path d="M810 159.55C742.12 159.55 675 48.47 675 0C675 -31.31 742.5 0 810 0C878.83 0 947.65 -31.52 947.65 0C947.65 48.25 878.44 159.55 810 159.55" stroke="rgba(255, 136, 48, 1)" stroke-width="2"></path><path d="M1207.89 270C1204.77 146.77 1270.94 130.49 1339.62 0C1341.99 -4.51 1344.81 0 1350 0C1485 0 1485 0 1620 0C1755 0 1755 0 1890 0C2025 0 2092.5 -67.5 2160 0C2227.5 67.5 2160 135 2160 270C2160 405 2160 405 2160 540C2160 596.62 2187.42 653.23 2160 653.23C2115.78 653.23 2062.01 614.99 2016.73 540C1946.3 423.37 1967.02 406.52 1928.57 270C1903.65 181.52 1913.22 90 1890 90C1866.25 90 1889.58 198.59 1834.62 270C1754.58 374 1741.73 405.59 1620 440.82C1499.42 475.72 1468.78 459.49 1350 410.26C1262.72 374.08 1209.96 351.9 1207.89 270" stroke="rgba(255, 136, 48, 1)" stroke-width="2"></path><path d="M270 646.88C134.55 707.73 17.42 740.52 17.42 810C17.42 872.92 139.67 875.29 270 911.69C400.96 948.27 413.89 980.83 540 955.95C671.62 929.98 785.45 896.95 785.45 810C785.45 706.58 681.42 619.97 540 575.22C423.69 538.41 395.84 590.34 270 646.88" stroke="rgba(255, 136, 48, 1)" stroke-width="2"></path><path d="M1483.55 810C1551.06 711.89 1549.96 614.77 1620 614.77C1691.96 614.77 1689.96 715.57 1767.56 810C1824.96 879.83 1811.27 915.03 1890 943.29C2007.49 985.46 2068.66 904.62 2160 950.87C2203.66 972.98 2203.68 1059.11 2160 1080C2068.68 1123.68 2025 1080 1890 1080C1755 1080 1755 1080 1620 1080C1485 1080 1485 1080 1350 1080C1268.03 1080 1186.07 1097.39 1186.07 1080C1186.07 1060.96 1286.09 1065.15 1350 1007.14C1434.83 930.15 1416.06 908.08 1483.55 810" stroke="rgba(255, 136, 48, 1)" stroke-width="2"></path><path d="M0 190.59C106.2 114.73 182.16 53.26 270 77.14C328.22 92.97 292.13 173.93 292.13 270C292.13 331.72 309.62 350.54 270 392.73C182.84 485.54 156.32 470.87 38.57 540C21.32 550.13 15.07 551.25 0 551.25C-4.22 551.25 0 545.63 0 540C0 405 0 405 0 270C0 230.3 -28.8 211.16 0 190.59" stroke="rgba(255, 136, 48, 1)" stroke-width="2"></path><path d="M810 6.14C807.39 6.14 804.81 1.87 804.81 0C804.81 -1.2 807.4 0 810 0C812.64 0 815.29 -1.21 815.29 0C815.29 1.86 812.63 6.14 810 6.14" stroke="rgba(255, 136, 48, 1)" stroke-width="2"></path><path d="M1296.71 270C1296.71 222.34 1301.64 188.18 1350 166.15C1463.29 114.54 1520.12 89.43 1620 122.73C1675.89 141.36 1661.54 203.06 1661.54 270C1661.54 293.23 1645.54 298.75 1620 303.06C1489.77 325.05 1476.62 335.55 1350 322.6C1314.98 319.02 1296.71 300.57 1296.71 270" stroke="rgba(255, 136, 48, 1)" stroke-width="2"></path><path d="M2049.11 270C2017.04 139.44 1985.12 89.46 2021.86 0C2040.56 -45.54 2136.62 -45.69 2160 0C2205.69 89.31 2160 135 2160 270C2160 405 2160 405 2160 540C2160 542.17 2161.05 544.35 2160 544.35C2158.3 544.35 2155.8 543.24 2154.49 540C2100.36 406.07 2083.36 409.44 2049.11 270" stroke="rgba(255, 136, 48, 1)" stroke-width="2"></path><path d="M1556.13 810C1556.13 758.87 1587.21 718.62 1620 718.62C1653.68 718.62 1689.07 758.14 1689.07 810C1689.07 918.06 1653.34 1038.46 1620 1038.46C1586.87 1038.46 1556.13 918.79 1556.13 810" stroke="rgba(255, 136, 48, 1)" stroke-width="2"></path><path d="M159.11 1080C159.11 1057.71 206.51 1004.82 270 999.35C396.96 988.4 404.73 1024.94 540 1047.16C650.18 1065.26 760.91 1071.75 760.91 1080C760.91 1088.17 650.45 1080 540 1080C405 1080 405 1080 270 1080C214.56 1080 159.11 1098.03 159.11 1080" stroke="rgba(255, 136, 48, 1)" stroke-width="2"></path><path d="M1676.84 1080C1676.84 1067 1781.91 1035.73 1890 1028.73C2023.49 1020.08 2038.99 1025.72 2160 1048.7C2173.99 1051.36 2174.02 1078.37 2160 1080C2039.02 1094.02 2025 1080 1890 1080C1783.42 1080 1676.84 1092.64 1676.84 1080" stroke="rgba(255, 136, 48, 1)" stroke-width="2"></path></g><defs><mask id="SvgjsMask1029"><rect width="1920" height="1080" fill="#ffffff"></rect></mask><linearGradient x1="10.94%" y1="-19.44%" x2="89.06%" y2="119.44%" gradientUnits="userSpaceOnUse" id="SvgjsLinearGradient1030"><stop stop-color="#0e2a47" offset="0"></stop><stop stop-color="rgba(0, 0, 0, 1)" offset="1"></stop></linearGradient></defs></svg>